<svg width="146" height="42" viewBox="0 0 146 42" fill="none" xmlns="http://www.w3.org/2000/svg">
<g clip-path="url(#clip0_1_10)">
<path d="M140.593 0.841312C143.096 0.841312 145.133 2.81924 145.133 5.25V36.75C145.133 39.1808 143.096 41.1587 140.593 41.1587H5.40741C2.90378 41.1587 0.866537 39.1808 0.866537 36.75V5.25C0.866537 2.81924 2.90378 0.841312 5.40741 0.841312H140.593ZM140.593 0H5.40741C2.43468 0 0 2.36381 0 5.25V36.75C0 39.6362 2.43468 42 5.40741 42H140.593C143.565 42 146 39.6362 146 36.75V5.25C146 2.36381 143.565 0 140.593 0Z" fill="#0B0B0B"/>
<path d="M32.5827 20.7735C32.5513 17.3894 35.4367 15.743 35.5686 15.6663C33.9345 13.3532 31.4017 13.0371 30.5116 13.0119C28.3843 12.7946 26.3209 14.2478 25.2372 14.2478C24.132 14.2478 22.4632 13.0329 20.6647 13.0686C18.3504 13.1033 16.1852 14.4042 14.9978 16.4244C12.5471 20.5436 14.3748 26.5968 16.7227 29.9264C17.8972 31.557 19.2696 33.3777 21.066 33.3137C22.8234 33.2433 23.4798 32.2259 25.6006 32.2259C27.7019 32.2259 28.3184 33.3137 30.1504 33.2727C32.0365 33.2433 33.224 31.6347 34.3574 29.9894C35.7146 28.1204 36.2597 26.2797 36.2813 26.1852C36.237 26.1705 32.6183 24.8297 32.5827 20.7735Z" fill="#0B0B0B"/>
<path d="M29.1219 10.8213C30.0671 9.67363 30.7139 8.11228 30.5343 6.52783C29.1663 6.58663 27.4553 7.44658 26.4701 8.56903C25.5984 9.55813 24.8198 11.1794 25.0209 12.704C26.5577 12.8153 28.1356 11.9511 29.1219 10.8213Z" fill="#0B0B0B"/>
<path d="M53.0467 10.5096C53.0467 11.7455 52.665 12.6758 51.9025 13.3005C51.1963 13.877 50.1927 14.1657 48.8928 14.1657C48.2482 14.1657 47.6967 14.1384 47.2349 14.0838V7.33128C47.8372 7.23678 48.4861 7.18848 49.1869 7.18848C50.4252 7.18848 51.3586 7.44993 51.988 7.97283C52.6931 8.56398 53.0467 9.40923 53.0467 10.5096ZM51.8517 10.5401C51.8517 9.73893 51.6333 9.12468 51.1963 8.69628C50.7594 8.26893 50.1213 8.05473 49.281 8.05473C48.9241 8.05473 48.6202 8.07783 48.3683 8.12613V13.2596C48.5078 13.2806 48.763 13.29 49.1339 13.29C50.0013 13.29 50.6707 13.0559 51.1423 12.5876C51.6138 12.1193 51.8517 11.4368 51.8517 10.5401Z" fill="#0B0B0B"/>
<path d="M59.3833 11.5889C59.3833 12.3502 59.1595 12.9739 58.7117 13.4632C58.2424 13.9661 57.6205 14.2171 56.844 14.2171C56.0956 14.2171 55.4997 13.9766 55.0553 13.4936C54.6118 13.0117 54.3901 12.4037 54.3901 11.6708C54.3901 10.9043 54.6183 10.2754 55.0769 9.7871C55.5354 9.29885 56.1519 9.0542 56.9284 9.0542C57.6768 9.0542 58.2781 9.29465 58.7334 9.7766C59.166 10.2449 59.3833 10.8497 59.3833 11.5889ZM58.2078 11.6246C58.2078 11.1679 58.1061 10.7762 57.9039 10.4497C57.6659 10.0549 57.3274 9.85745 56.8873 9.85745C56.432 9.85745 56.0859 10.0549 55.848 10.4497C55.6447 10.7762 55.5441 11.1742 55.5441 11.6446C55.5441 12.1013 55.6457 12.493 55.848 12.8195C56.0935 13.2143 56.4352 13.4117 56.8765 13.4117C57.3091 13.4117 57.6486 13.2112 57.8931 12.809C58.1029 12.4762 58.2078 12.0814 58.2078 11.6246Z" fill="#0B0B0B"/>
<path d="M67.8792 9.15527L66.284 14.105H65.2458L64.585 11.9556C64.4174 11.4191 64.2811 10.8857 64.1751 10.3565H64.1546C64.0562 10.9004 63.9199 11.4327 63.7447 11.9556L63.0428 14.105H61.9927L60.4927 9.15527H61.6574L62.2339 11.5083C62.3734 12.0648 62.488 12.5951 62.5799 13.097H62.6005C62.6848 12.6833 62.8243 12.1562 63.0212 11.5188L63.7447 9.15632H64.6683L65.3615 11.4684C65.5291 12.0323 65.6654 12.5751 65.7703 13.098H65.8017C65.8785 12.5888 65.9942 12.0459 66.1477 11.4684L66.7663 9.15632H67.8792V9.15527Z" fill="#0B0B0B"/>
<path d="M73.7548 14.1049H72.6214V11.2699C72.6214 10.3963 72.2797 9.95952 71.594 9.95952C71.2577 9.95952 70.9862 10.0792 70.7753 10.3196C70.5666 10.5601 70.4606 10.8436 70.4606 11.168V14.1038H69.3272V10.5695C69.3272 10.1348 69.3132 9.66342 69.2861 9.15312H70.2822L70.3352 9.92697H70.3665C70.4985 9.68652 70.6953 9.48807 70.9538 9.32952C71.2609 9.14472 71.6048 9.05127 71.9812 9.05127C72.457 9.05127 72.8528 9.20037 73.1676 9.49962C73.5591 9.86607 73.7548 10.4131 73.7548 11.1397V14.1049Z" fill="#0B0B0B"/>
<path d="M76.8803 14.1047H75.748V6.88379H76.8803V14.1047Z" fill="#0B0B0B"/>
<path d="M83.5533 11.5889C83.5533 12.3502 83.3294 12.9739 82.8817 13.4632C82.4123 13.9661 81.7894 14.2171 81.0139 14.2171C80.2645 14.2171 79.6686 13.9766 79.2252 13.4936C78.7818 13.0117 78.5601 12.4037 78.5601 11.6708C78.5601 10.9043 78.7883 10.2754 79.2468 9.7871C79.7053 9.29885 80.3218 9.0542 81.0972 9.0542C81.8467 9.0542 82.4469 9.29465 82.9033 9.7766C83.3359 10.2449 83.5533 10.8497 83.5533 11.5889ZM82.3766 11.6246C82.3766 11.1679 82.2749 10.7762 82.0727 10.4497C81.8359 10.0549 81.4963 9.85745 81.0572 9.85745C80.6008 9.85745 80.2547 10.0549 80.0179 10.4497C79.8146 10.7762 79.714 11.1742 79.714 11.6446C79.714 12.1013 79.8157 12.493 80.0179 12.8195C80.2634 13.2143 80.6051 13.4117 81.0464 13.4117C81.479 13.4117 81.8175 13.2112 82.0619 12.809C82.2728 12.4762 82.3766 12.0814 82.3766 11.6246Z" fill="#0B0B0B"/>
<path d="M89.0384 14.1047H88.0207L87.9363 13.5346H87.905C87.5567 13.9892 87.0603 14.2171 86.4158 14.2171C85.9345 14.2171 85.5452 14.0669 85.2521 13.7687C84.9861 13.4978 84.853 13.1608 84.853 12.7607C84.853 12.1559 85.1126 11.695 85.6349 11.3758C86.1562 11.0566 86.8895 10.9001 87.8336 10.9075V10.8151C87.8336 10.163 87.481 9.8375 86.7748 9.8375C86.2719 9.8375 85.8285 9.96035 85.4457 10.204L85.2153 9.48155C85.689 9.197 86.2741 9.0542 86.9641 9.0542C88.2965 9.0542 88.9648 9.7367 88.9648 11.1017V12.9245C88.9648 13.4191 88.9897 13.8128 89.0384 14.1047ZM87.8617 12.4037V11.6404C86.6115 11.6194 85.9864 11.9522 85.9864 12.6379C85.9864 12.8962 86.0578 13.0894 86.2038 13.2185C86.3498 13.3477 86.5358 13.4117 86.7575 13.4117C87.0063 13.4117 87.2388 13.3351 87.4507 13.1828C87.6638 13.0295 87.7946 12.8353 87.8433 12.5969C87.8552 12.5434 87.8617 12.4783 87.8617 12.4037Z" fill="#0B0B0B"/>
<path d="M95.4785 14.1047H94.4727L94.4197 13.3098H94.3883C94.0671 13.9146 93.5199 14.217 92.751 14.217C92.1367 14.217 91.6252 13.9829 91.2196 13.5146C90.814 13.0463 90.6118 12.4383 90.6118 11.6918C90.6118 10.8906 90.8314 10.2417 91.2726 9.74609C91.6998 9.28409 92.2232 9.05309 92.8461 9.05309C93.5307 9.05309 94.0098 9.27674 94.2824 9.72509H94.304V6.88379H95.4385V12.7712C95.4385 13.2531 95.4514 13.6973 95.4785 14.1047ZM94.304 12.0173V11.192C94.304 11.0492 94.2932 10.9337 94.2726 10.8455C94.2088 10.5809 94.0715 10.3583 93.8627 10.1787C93.6519 9.99914 93.3977 9.90884 93.1046 9.90884C92.6818 9.90884 92.3508 10.0716 92.1075 10.3982C91.8663 10.7247 91.7441 11.1416 91.7441 11.6508C91.7441 12.1401 91.8598 12.537 92.0924 12.8426C92.3379 13.1681 92.6688 13.3308 93.083 13.3308C93.455 13.3308 93.7524 13.1954 93.9785 12.9234C94.1969 12.6725 94.304 12.3701 94.304 12.0173Z" fill="#0B0B0B"/>
<path d="M105.172 11.5889C105.172 12.3502 104.948 12.9739 104.5 13.4632C104.031 13.9661 103.41 14.2171 102.633 14.2171C101.885 14.2171 101.289 13.9766 100.844 13.4936C100.4 13.0117 100.179 12.4037 100.179 11.6708C100.179 10.9043 100.407 10.2754 100.865 9.7871C101.324 9.29885 101.94 9.0542 102.718 9.0542C103.465 9.0542 104.068 9.29465 104.522 9.7766C104.955 10.2449 105.172 10.8497 105.172 11.5889ZM103.997 11.6246C103.997 11.1679 103.896 10.7762 103.694 10.4497C103.455 10.0549 103.117 9.85745 102.676 9.85745C102.222 9.85745 101.876 10.0549 101.637 10.4497C101.433 10.7762 101.333 11.1742 101.333 11.6446C101.333 12.1013 101.434 12.493 101.637 12.8195C101.882 13.2143 102.224 13.4117 102.665 13.4117C103.098 13.4117 103.438 13.2112 103.683 12.809C103.891 12.4762 103.997 12.0814 103.997 11.6246Z" fill="#0B0B0B"/>
<path d="M111.266 14.1049H110.134V11.2699C110.134 10.3963 109.792 9.95952 109.105 9.95952C108.769 9.95952 108.497 10.0792 108.288 10.3196C108.078 10.5601 107.973 10.8436 107.973 11.168V14.1038H106.838V10.5695C106.838 10.1348 106.825 9.66342 106.798 9.15312H107.793L107.846 9.92697H107.878C108.011 9.68652 108.208 9.48807 108.465 9.32952C108.773 9.14472 109.116 9.05127 109.493 9.05127C109.968 9.05127 110.364 9.20037 110.679 9.49962C111.071 9.86607 111.266 10.4131 111.266 11.1397V14.1049Z" fill="#0B0B0B"/>
<path d="M118.894 9.97931H117.646V12.3838C117.646 12.9949 117.868 13.3005 118.307 13.3005C118.51 13.3005 118.679 13.2837 118.812 13.249L118.841 14.0838C118.617 14.1657 118.323 14.2066 117.961 14.2066C117.513 14.2066 117.165 14.0743 116.913 13.8097C116.66 13.5451 116.534 13.0999 116.534 12.4752V9.97931H115.789V9.15506H116.534V8.24786L117.645 7.92236V9.15401H118.893L118.894 9.97931Z" fill="#0B0B0B"/>
<path d="M124.894 14.1047H123.759V11.2907C123.759 10.4034 123.418 9.95924 122.733 9.95924C122.208 9.95924 121.848 10.2165 121.652 10.731C121.618 10.8392 121.599 10.9715 121.599 11.1269V14.1036H120.466V6.88379H121.599V9.86684H121.62C121.977 9.32399 122.489 9.05309 123.152 9.05309C123.621 9.05309 124.009 9.20219 124.317 9.50144C124.701 9.87419 124.894 10.4286 124.894 11.1615V14.1047Z" fill="#0B0B0B"/>
<path d="M131.083 11.3959C131.083 11.5933 131.068 11.7592 131.041 11.8946H127.642C127.657 12.3839 127.819 12.7567 128.134 13.015C128.422 13.246 128.793 13.3615 129.247 13.3615C129.75 13.3615 130.208 13.2838 130.621 13.1273L130.799 13.8917C130.315 14.0954 129.747 14.1973 129.088 14.1973C128.298 14.1973 127.677 13.9715 127.227 13.52C126.775 13.0685 126.551 12.4627 126.551 11.7025C126.551 10.9559 126.76 10.3343 127.18 9.83872C127.619 9.30952 128.213 9.04492 128.962 9.04492C129.696 9.04492 130.253 9.30952 130.629 9.83872C130.933 10.2587 131.083 10.7785 131.083 11.3959ZM130.002 11.1113C130.01 10.7848 129.936 10.5034 129.782 10.2661C129.585 9.96052 129.286 9.80722 128.88 9.80722C128.51 9.80722 128.209 9.95632 127.978 10.2556C127.79 10.4939 127.679 10.7785 127.642 11.1113H130.002Z" fill="#0B0B0B"/>
<path d="M58.0162 33.0794H55.5601L54.2148 28.975H49.5384L48.2569 33.0794H45.8657L50.4988 19.106H53.3604L58.0162 33.0794ZM53.8092 27.253L52.5925 23.6042C52.4638 23.2315 52.2227 22.3537 51.8669 20.9719H51.8236C51.6819 21.5662 51.4537 22.444 51.1401 23.6042L49.9451 27.253H53.8092Z" fill="#0B0B0B"/>
<path d="M69.931 27.9173C69.931 29.6309 69.454 30.9854 68.5002 31.9797C67.6458 32.8649 66.5849 33.3069 65.3185 33.3069C63.9515 33.3069 62.9695 32.8302 62.3714 31.8768H62.3282V37.1846H60.0224V26.3202C60.0224 25.2429 59.9932 24.1373 59.937 23.0033H61.9648L62.0935 24.6003H62.1367C62.9057 23.397 64.0726 22.7964 65.6386 22.7964C66.8628 22.7964 67.8848 23.2658 68.7024 24.2055C69.5222 25.1463 69.931 26.3832 69.931 27.9173ZM67.582 27.9992C67.582 27.0185 67.3549 26.21 66.8985 25.5737C66.3999 24.9101 65.7305 24.5783 64.8913 24.5783C64.3224 24.5783 63.8055 24.7631 63.3437 25.1274C62.8808 25.4949 62.578 25.9748 62.4363 26.5691C62.3649 26.8463 62.3292 27.0731 62.3292 27.2516V28.9316C62.3292 29.6645 62.5607 30.2829 63.0236 30.788C63.4864 31.293 64.0877 31.545 64.8275 31.545C65.6959 31.545 66.3718 31.2195 66.8552 30.5706C67.3398 29.9207 67.582 29.0639 67.582 27.9992Z" fill="#0B0B0B"/>
<path d="M81.8674 27.9173C81.8674 29.6309 81.3905 30.9854 80.4355 31.9797C79.5822 32.8649 78.5213 33.3069 77.2549 33.3069C75.8879 33.3069 74.9059 32.8302 74.3089 31.8768H74.2657V37.1846H71.96V26.3202C71.96 25.2429 71.9307 24.1373 71.8745 23.0033H73.9023L74.031 24.6003H74.0742C74.8421 23.397 76.009 22.7964 77.5761 22.7964C78.7992 22.7964 79.8212 23.2658 80.641 24.2055C81.4575 25.1463 81.8674 26.3832 81.8674 27.9173ZM79.5184 27.9992C79.5184 27.0185 79.2902 26.21 78.8338 25.5737C78.3353 24.9101 77.668 24.5783 76.8277 24.5783C76.2578 24.5783 75.7419 24.7631 75.279 25.1274C74.8161 25.4949 74.5144 25.9748 74.3727 26.5691C74.3024 26.8463 74.2657 27.0731 74.2657 27.2516V28.9316C74.2657 29.6645 74.4971 30.2829 74.9578 30.788C75.4207 31.292 76.022 31.545 76.7639 31.545C77.6323 31.545 78.3082 31.2195 78.7917 30.5706C79.2762 29.9207 79.5184 29.0639 79.5184 27.9992Z" fill="#0B0B0B"/>
<path d="M95.2129 29.1605C95.2129 30.3491 94.7879 31.3161 93.9346 32.0627C92.9969 32.8785 91.6916 33.2859 90.0142 33.2859C88.4655 33.2859 87.224 32.9961 86.2842 32.4155L86.8184 30.5496C87.8307 31.1439 88.9414 31.4421 90.1516 31.4421C91.02 31.4421 91.6959 31.251 92.1815 30.8709C92.6649 30.4908 92.9061 29.9805 92.9061 29.3442C92.9061 28.7772 92.7071 28.2995 92.308 27.912C91.9111 27.5246 91.2482 27.1644 90.3224 26.8316C87.8026 25.9191 86.5437 24.5825 86.5437 22.8248C86.5437 21.6761 86.985 20.7342 87.8686 20.0013C88.7489 19.2674 89.9234 18.9009 91.392 18.9009C92.7017 18.9009 93.7897 19.1225 94.6581 19.5645L94.0817 21.3894C93.2705 20.961 92.3535 20.7468 91.3271 20.7468C90.516 20.7468 89.8823 20.9411 89.4281 21.3275C89.0441 21.6729 88.8516 22.094 88.8516 22.5927C88.8516 23.145 89.0712 23.6018 89.5124 23.9609C89.8963 24.2927 90.5939 24.6518 91.6062 25.0392C92.8444 25.5233 93.754 26.0892 94.3391 26.7381C94.922 27.3849 95.2129 28.1945 95.2129 29.1605Z" fill="#0B0B0B"/>
<path d="M102.836 24.6833H100.294V29.5752C100.294 30.8195 100.742 31.4411 101.64 31.4411C102.052 31.4411 102.393 31.4064 102.664 31.3371L102.728 33.0371C102.273 33.2019 101.675 33.2849 100.935 33.2849C100.024 33.2849 99.3123 33.015 98.7986 32.4764C98.2871 31.9367 98.0297 31.0316 98.0297 29.76V24.6812H96.5156V23.0012H98.0297V21.1563L100.294 20.4927V23.0012H102.836V24.6833Z" fill="#0B0B0B"/>
<path d="M114.303 27.9582C114.303 29.5069 113.847 30.7785 112.936 31.7728C111.981 32.7966 110.714 33.3069 109.134 33.3069C107.611 33.3069 106.398 32.8165 105.494 31.8358C104.59 30.8551 104.138 29.6172 104.138 28.1251C104.138 26.5638 104.603 25.2849 105.537 24.2905C106.468 23.2951 107.724 22.7974 109.304 22.7974C110.827 22.7974 112.052 23.2878 112.977 24.2695C113.862 25.2219 114.303 26.4514 114.303 27.9582ZM111.911 28.0306C111.911 27.1014 111.706 26.3044 111.292 25.6398C110.809 24.8355 110.118 24.4344 109.222 24.4344C108.295 24.4344 107.591 24.8365 107.108 25.6398C106.694 26.3055 106.489 27.115 106.489 28.0726C106.489 29.0019 106.694 29.7988 107.108 30.4624C107.606 31.2667 108.303 31.6678 109.202 31.6678C110.082 31.6678 110.773 31.2583 111.272 30.4414C111.697 29.7642 111.911 28.9588 111.911 28.0306Z" fill="#0B0B0B"/>
<path d="M121.797 24.972C121.569 24.9311 121.326 24.9101 121.071 24.9101C120.26 24.9101 119.632 25.2072 119.191 25.8026C118.807 26.3276 118.615 26.9912 118.615 27.7923V33.0791H116.31L116.332 26.1764C116.332 25.0151 116.302 23.9577 116.245 23.0043H118.253L118.338 24.9321H118.402C118.645 24.2696 119.029 23.7362 119.554 23.3361C120.068 22.976 120.623 22.7964 121.221 22.7964C121.434 22.7964 121.627 22.8111 121.797 22.8374V24.972Z" fill="#0B0B0B"/>
<path d="M132.11 27.5648C132.11 27.9659 132.083 28.304 132.025 28.5801H125.108C125.135 29.5755 125.469 30.3368 126.112 30.8618C126.695 31.3311 127.448 31.5663 128.374 31.5663C129.398 31.5663 130.333 31.4078 131.173 31.0896L131.534 32.6436C130.552 33.0594 129.393 33.2663 128.055 33.2663C126.446 33.2663 125.183 32.8064 124.263 31.8876C123.346 30.9689 122.887 29.7351 122.887 28.1874C122.887 26.6681 123.314 25.4028 124.169 24.3938C125.065 23.3165 126.275 22.7778 127.798 22.7778C129.293 22.7778 130.426 23.3165 131.195 24.3938C131.804 25.2495 132.11 26.3079 132.11 27.5648ZM129.911 26.9841C129.926 26.3205 129.776 25.7472 129.463 25.2632C129.064 24.6405 128.451 24.3297 127.626 24.3297C126.872 24.3297 126.259 24.6332 125.79 25.2422C125.407 25.7262 125.178 26.3069 125.108 26.9831L129.911 26.9841Z" fill="#0B0B0B"/>
</g>
<defs>
<clipPath id="clip0_1_10">
<rect width="146" height="42" fill="white"/>
</clipPath>
</defs>
</svg>
