<svg width="80" height="31" viewBox="0 0 80 31" fill="none" xmlns="http://www.w3.org/2000/svg">
<g style="mix-blend-mode:darken" clip-path="url(#clip0_1_97)">
<path d="M80 0H0V31H80V0Z" fill="#1E1E1E"/>
<path d="M1485 -6606H-115V154H1485V-6606Z" fill="white"/>
<path d="M64.3241 31C72.9816 31 79.9998 24.0604 79.9998 15.5C79.9998 6.93959 72.9816 0 64.3241 0C55.6667 0 48.6484 6.93959 48.6484 15.5C48.6484 24.0604 55.6667 31 64.3241 31Z" fill="#4A4A4A"/>
<path d="M43.7857 22.4491C44.6813 22.4491 45.4073 21.7312 45.4073 20.8456C45.4073 19.9601 44.6813 19.2422 43.7857 19.2422C42.8901 19.2422 42.1641 19.9601 42.1641 20.8456C42.1641 21.7312 42.8901 22.4491 43.7857 22.4491Z" fill="#4A4A4A"/>
<path fill-rule="evenodd" clip-rule="evenodd" d="M40.2768 8.89928H36.5706V16.7344L30.971 8.81055H27.543V22.4487H31.2581L31.2133 15.0662L36.8578 22.5552H40.2768V8.89928ZM8.08573 15.5356L13.461 22.4479H8.79466L4.79234 16.9287H4.64875V22.4479H0.933594V8.89844H4.64875V14.5418H4.74747L8.52544 8.89844H12.8149L8.08573 15.5356ZM19.8507 22.7851C16.2791 22.7851 13.8203 20.4692 13.8203 17.1239V8.89844H17.5355V17.1328C17.5355 18.5082 18.4957 19.4576 19.8507 19.4576C21.2147 19.4576 22.1749 18.5082 22.1749 17.1417V8.89844H25.8901V17.1239C25.8901 20.4692 23.4313 22.7851 19.8507 22.7851Z" fill="#4A4A4A"/>
<path fill-rule="evenodd" clip-rule="evenodd" d="M52.6797 17.1239C52.6797 20.4692 55.1385 22.7851 58.7101 22.7851C62.2906 22.7851 64.7495 20.4692 64.7495 17.1239V8.89844H61.0343V17.1417C61.0343 18.5082 60.0741 19.4576 58.7101 19.4576C57.355 19.4576 56.3948 18.5082 56.3948 17.1328V8.89844H52.6797V17.1239ZM71.2944 12.1638L65.5781 22.4479H76.9839V19.1737H71.6983L77.3877 8.89844H66.655V12.1638H71.2944Z" fill="white"/>
</g>
<defs>
<clipPath id="clip0_1_97">
<rect width="80" height="31" fill="white"/>
</clipPath>
</defs>
</svg>
