<svg width="146" height="42" viewBox="0 0 146 42" fill="none" xmlns="http://www.w3.org/2000/svg">
<g clip-path="url(#clip0_1_35)">
<path d="M140.593 0.841312C143.096 0.841312 145.133 2.81925 145.133 5.25V36.75C145.133 39.1808 143.096 41.1587 140.593 41.1587H5.40741C2.90378 41.1587 0.866537 39.1808 0.866537 36.75V5.25C0.866537 2.81925 2.90378 0.841312 5.40741 0.841312H140.593ZM140.593 0H5.40741C2.43469 0 0 2.36381 0 5.25V36.75C0 39.6362 2.43469 42 5.40741 42H140.593C143.565 42 146 39.6362 146 36.75V5.25C146 2.36381 143.565 0 140.593 0Z" fill="#0B0B0B"/>
<path d="M10.4742 7.91548C10.1565 8.23835 9.97266 8.74104 9.97266 9.39204V32.6128C9.97266 33.2638 10.1565 33.7664 10.4742 34.0893L10.5526 34.1602L23.9549 21.1533V20.8462L10.5526 7.83936L10.4742 7.91548Z" fill="#0B0B0B"/>
<path d="M30.0396 25.4915L25.5771 21.1537V20.8466L30.045 16.5088L30.1451 16.5652L35.4362 19.4882C36.9462 20.3177 36.9462 21.6827 35.4362 22.5174L30.1451 25.4351L30.0396 25.4915Z" fill="#0B0B0B"/>
<path d="M29.3337 26.2425L24.7658 21.8076L11.2852 34.8971C11.7867 35.409 12.6046 35.4707 13.5346 34.9588L29.3337 26.2425Z" fill="#0B0B0B"/>
<path d="M29.3337 15.7572L13.5346 7.04091C12.6046 6.53428 11.7867 6.59597 11.2852 7.10784L24.7658 20.1922L29.3337 15.7572Z" fill="#0B0B0B"/>
<path d="M51.2813 10.7557C51.2813 11.6325 51.011 12.3347 50.4784 12.8584C49.866 13.4792 49.0684 13.7916 48.091 13.7916C47.1569 13.7916 46.3593 13.4739 45.705 12.8479C45.0493 12.2126 44.7222 11.433 44.7222 10.4998C44.7222 9.56658 45.0493 8.78695 45.705 8.15695C46.3593 7.52564 47.1569 7.20801 48.091 7.20801C48.556 7.20801 48.9994 7.3012 49.4226 7.47445C49.8443 7.64901 50.1877 7.88526 50.4364 8.17664L49.8714 8.73051C49.4374 8.23308 48.8467 7.98764 48.091 7.98764C47.4097 7.98764 46.8189 8.21864 46.3174 8.68457C45.8212 9.15182 45.5725 9.75689 45.5725 10.4998C45.5725 11.2427 45.8212 11.853 46.3174 12.3202C46.8189 12.7809 47.4097 13.0172 48.091 13.0172C48.8142 13.0172 49.4226 12.7809 49.9025 12.315C50.2188 12.0066 50.3986 11.5813 50.4459 11.0379H48.091V10.2793H51.2327C51.2705 10.4434 51.2813 10.6022 51.2813 10.7557Z" fill="#0B0B0B" stroke="#0B0B0B" stroke-width="0.16" stroke-miterlimit="10"/>
<path d="M56.2655 8.1256H53.3144V10.1206H55.9749V10.8792H53.3144V12.8742H56.2655V13.6473H52.479V7.35254H56.2655V8.1256Z" fill="#0B0B0B" stroke="#0B0B0B" stroke-width="0.16" stroke-miterlimit="10"/>
<path d="M59.7833 13.6473H58.9478V8.1256H57.1377V7.35254H61.5947V8.1256H59.7833V13.6473Z" fill="#0B0B0B" stroke="#0B0B0B" stroke-width="0.16" stroke-miterlimit="10"/>
<path d="M64.8203 13.6473V7.35254H65.6544V13.6473H64.8203Z" fill="#0B0B0B" stroke="#0B0B0B" stroke-width="0.16" stroke-miterlimit="10"/>
<path d="M69.3516 13.6473H68.5229V8.1256H66.7061V7.35254H71.1685V8.1256H69.3516V13.6473Z" fill="#0B0B0B" stroke="#0B0B0B" stroke-width="0.16" stroke-miterlimit="10"/>
<path d="M79.6069 12.8374C78.9674 13.4739 78.1752 13.7916 77.2303 13.7916C76.2799 13.7916 75.4878 13.4739 74.8483 12.8374C74.2103 12.2021 73.8926 11.4225 73.8926 10.4998C73.8926 9.57708 74.2103 8.79745 74.8483 8.1622C75.4878 7.52564 76.2799 7.20801 77.2303 7.20801C78.1698 7.20801 78.962 7.52564 79.6015 8.16745C80.2449 8.80795 80.5626 9.58233 80.5626 10.4998C80.5626 11.4225 80.2449 12.2021 79.6069 12.8374ZM75.4661 12.3097C75.9474 12.7809 76.5327 13.0172 77.2303 13.0172C77.9224 13.0172 78.5132 12.7809 78.9891 12.3097C79.469 11.8386 79.7123 11.2335 79.7123 10.4998C79.7123 9.76608 79.469 9.16101 78.9891 8.68983C78.5132 8.21864 77.9224 7.98239 77.2303 7.98239C76.5327 7.98239 75.9474 8.21864 75.4661 8.68983C74.9862 9.16101 74.7429 9.76608 74.7429 10.4998C74.7429 11.2335 74.9862 11.8386 75.4661 12.3097Z" fill="#0B0B0B" stroke="#0B0B0B" stroke-width="0.16" stroke-miterlimit="10"/>
<path d="M81.7344 13.6473V7.35254H82.7483L85.9008 12.2482H85.9373L85.9008 11.0381V7.35254H86.7349V13.6473H85.8643L82.5631 8.51017H82.5266L82.5631 9.72554V13.6473H81.7344Z" fill="#0B0B0B" stroke="#0B0B0B" stroke-width="0.16" stroke-miterlimit="10"/>
<path d="M73.6865 22.8399C71.1464 22.8399 69.0713 24.7168 69.0713 27.3064C69.0713 29.8749 71.1464 31.7715 73.6865 31.7715C76.2321 31.7715 78.3072 29.8749 78.3072 27.3064C78.3072 24.7168 76.2321 22.8399 73.6865 22.8399ZM73.6865 30.0127C72.2928 30.0127 71.0937 28.8958 71.0937 27.3064C71.0937 25.6959 72.2928 24.5987 73.6865 24.5987C75.0803 24.5987 76.2848 25.6959 76.2848 27.3064C76.2848 28.8958 75.0803 30.0127 73.6865 30.0127ZM63.6166 22.8399C61.071 22.8399 59.0014 24.7168 59.0014 27.3064C59.0014 29.8749 61.071 31.7715 63.6166 31.7715C66.1608 31.7715 68.2318 29.8749 68.2318 27.3064C68.2318 24.7168 66.1608 22.8399 63.6166 22.8399ZM63.6166 30.0127C62.2215 30.0127 61.0183 28.8958 61.0183 27.3064C61.0183 25.6959 62.2215 24.5987 63.6166 24.5987C65.0103 24.5987 66.2094 25.6959 66.2094 27.3064C66.2094 28.8958 65.0103 30.0127 63.6166 30.0127ZM51.6338 24.2089V26.1067H56.3017C56.1652 27.1672 55.8002 27.9469 55.2405 28.4902C54.5592 29.1465 53.498 29.8749 51.6338 29.8749C48.7611 29.8749 46.5116 27.624 46.5116 24.8349C46.5116 22.0459 48.7611 19.7949 51.6338 19.7949C53.187 19.7949 54.3172 20.3842 55.1513 21.1481L56.5288 19.8107C55.3622 18.7292 53.8102 17.8984 51.6338 17.8984C47.6945 17.8984 44.3838 21.0103 44.3838 24.8349C44.3838 28.6596 47.6945 31.7715 51.6338 31.7715C53.7629 31.7715 55.3622 31.0942 56.6194 29.8237C57.9077 28.5729 58.3092 26.8142 58.3092 25.3941C58.3092 24.9531 58.2714 24.5475 58.2038 24.2089H51.6338ZM100.633 25.6802C100.253 24.6814 99.081 22.8399 96.6937 22.8399C94.3279 22.8399 92.3583 24.6499 92.3583 27.3064C92.3583 29.808 94.3077 31.7715 96.9208 31.7715C99.0337 31.7715 100.253 30.5207 100.755 29.7922L99.1865 28.7777C98.6633 29.5205 97.9509 30.0127 96.9208 30.0127C95.8974 30.0127 95.1634 29.5573 94.6929 28.6596L100.845 26.1881L100.633 25.6802ZM94.3604 27.1672C94.3077 25.4452 95.7379 24.5632 96.7626 24.5632C97.5656 24.5632 98.247 24.9531 98.4741 25.5109L94.3604 27.1672ZM89.3599 31.4998H91.3823V18.3748H89.3599V31.4998ZM86.0478 23.8348H85.9802C85.526 23.3124 84.6595 22.8399 83.5618 22.8399C81.2582 22.8399 79.1521 24.8034 79.1521 27.3208C79.1521 29.8237 81.2582 31.7715 83.5618 31.7715C84.6595 31.7715 85.526 31.295 85.9802 30.7569H86.0478V31.3974C86.0478 33.105 85.1083 34.0224 83.5929 34.0224C82.3573 34.0224 81.5908 33.1562 81.2745 32.4277L79.5157 33.1404C80.0226 34.3243 81.365 35.7812 83.5929 35.7812C85.964 35.7812 87.9648 34.4267 87.9648 31.131V23.1116H86.0478V23.8348ZM83.7348 30.0127C82.3411 30.0127 81.1744 28.88 81.1744 27.3208C81.1744 25.7471 82.3411 24.5987 83.7348 24.5987C85.1083 24.5987 86.1911 25.7471 86.1911 27.3208C86.1911 28.88 85.1083 30.0127 83.7348 30.0127ZM110.101 18.3748H105.264V31.4998H107.281V26.5267H110.101C112.341 26.5267 114.538 24.9531 114.538 22.4501C114.538 19.9485 112.336 18.3748 110.101 18.3748ZM110.154 24.7011H107.281V20.2005H110.154C111.66 20.2005 112.52 21.4146 112.52 22.4501C112.52 23.466 111.66 24.7011 110.154 24.7011ZM122.622 22.815C121.165 22.815 119.649 23.4397 119.026 24.8244L120.816 25.5529C121.201 24.8244 121.91 24.5882 122.659 24.5882C123.705 24.5882 124.766 25.1985 124.782 26.2761V26.4139C124.417 26.2091 123.636 25.9059 122.675 25.9059C120.747 25.9059 118.783 26.9362 118.783 28.8591C118.783 30.6178 120.362 31.7505 122.137 31.7505C123.494 31.7505 124.243 31.1559 124.713 30.4642H124.782V31.4788H126.73V26.4441C126.73 24.117 124.941 22.815 122.622 22.815ZM122.379 30.0075C121.719 30.0075 120.8 29.6899 120.8 28.8958C120.8 27.8799 121.946 27.4901 122.939 27.4901C123.827 27.4901 124.243 27.6804 124.782 27.9311C124.624 29.1465 123.547 30.0075 122.379 30.0075ZM133.828 23.1024L131.509 28.7921H131.44L129.043 23.1024H126.868L130.47 31.0535L128.415 35.478H130.522L136.072 23.1024H133.828ZM115.647 31.4998H117.669V18.3748H115.647V31.4998Z" fill="#0B0B0B"/>
</g>
<defs>
<clipPath id="clip0_1_35">
<rect width="146" height="42" fill="white"/>
</clipPath>
</defs>
</svg>
